<svg width="48" height="48" viewBox="0 0 48 48" fill="none" xmlns="http://www.w3.org/2000/svg">
<path d="M24 44C31.7268 44 38 37.7268 38 30C38 26 36 22.2 32 19C28 15.8 25 11 24 4C23 11 20 15.8 16 19C12 22.2 10 26 10 30C10 37.7268 16.2732 44 24 44V44" stroke="#725C3A" stroke-linecap="round" stroke-linejoin="round"/>
<path d="M18 30C18 33.3115 20.6885 36 24 36C27.3115 36 30 33.3115 30 30C30 26.6885 27.3115 24 24 24C20.6885 24 18 26.6885 18 30V30" stroke="#725C3A" stroke-linecap="round" stroke-linejoin="round"/>
</svg>
