<svg width="48" height="48" viewBox="0 0 48 48" fill="none" xmlns="http://www.w3.org/2000/svg">
<path d="M36 22V12C36 9.79234 34.2077 8 32 8V8C29.7923 8 28 9.79234 28 12V12" stroke="#725C3A" stroke-linecap="round" stroke-linejoin="round"/>
<path d="M28 20V8C28 5.79234 26.2077 4 24 4V4C21.7923 4 20 5.79234 20 8V8" stroke="#725C3A" stroke-linecap="round" stroke-linejoin="round"/>
<path d="M20 21V12C20 9.79234 18.2077 8 16 8V8C13.7923 8 12 9.79234 12 12V12" stroke="#725C3A" stroke-linecap="round" stroke-linejoin="round"/>
<path d="M36 16C36 13.7923 37.7923 12 40 12C42.2076 12 44 13.7923 44 16V28C44 36.8306 36.8306 44 28 44H24C18.4 44 15 42.28 12.02 39.32L4.81997 32.12C3.39073 30.5371 3.45472 28.1113 4.96541 26.6059C6.4761 25.1006 8.90214 25.0452 10.48 26.48L14 30" stroke="#725C3A" stroke-linecap="round" stroke-linejoin="round"/>
</svg>
