<svg width="25" height="25" viewBox="0 0 25 25" fill="none" xmlns="http://www.w3.org/2000/svg">
<path fill-rule="evenodd" clip-rule="evenodd" d="M6.43006 0.0607832C3.42202 0.425005 1.03991 2.50122 0.2108 5.48149C0.00357008 6.22634 0.000928011 6.31565 7.8707e-05 12.5075C-0.000770597 18.7108 0.00149411 18.7873 0.209951 19.5336C0.944599 22.1633 2.83921 24.0566 5.4695 24.7896C6.21576 24.9975 6.29663 25 12.4999 25C18.7031 25 18.7839 24.9975 19.5302 24.7896C22.1606 24.0566 24.056 22.1623 24.7895 19.5336C24.9975 18.7878 25 18.7069 25 12.5075C25 6.30811 24.9975 6.22728 24.7895 5.48149C24.0557 2.8513 22.1484 0.946535 19.5302 0.228842C18.7948 0.0273036 18.6239 0.0214563 12.9245 0.00240586C9.70658 -0.00834538 6.78403 0.0179668 6.43006 0.0607832ZM19.6078 2.77943C20.7928 3.2572 21.8102 4.30998 22.3295 5.5957L22.5499 6.14165L22.579 12.2246C22.5994 16.5066 22.5761 18.475 22.5002 18.8734C22.1552 20.6832 20.6792 22.1664 18.834 22.5573C17.9214 22.7505 7.07827 22.7505 6.16574 22.5573C4.35135 22.1729 2.87743 20.7155 2.50685 18.9395C2.43711 18.6054 2.40257 16.4781 2.40257 12.5227C2.40257 7.58204 2.42578 6.51653 2.54337 6.06554C2.95735 4.47719 4.08023 3.24768 5.58954 2.73058L6.22444 2.51301L12.6414 2.53546L19.0584 2.5579L19.6078 2.77943ZM18.6337 4.40297C18.504 4.45719 18.259 4.63572 18.0893 4.79963C17.0591 5.79469 17.8814 7.52922 19.318 7.39125C20.7214 7.25648 21.2245 5.4862 20.1024 4.63091C19.7202 4.3395 19.0385 4.23368 18.6337 4.40297ZM10.8216 6.28491C9.70036 6.57849 8.87776 7.06484 7.96164 7.97606C6.70109 9.2298 6.12233 10.4807 6.01636 12.1807C5.82347 15.2739 7.86548 18.0785 10.8956 18.8821C11.7165 19.0997 13.2832 19.0997 14.1041 18.8821C18.236 17.7863 20.239 13.1305 18.1857 9.39532C17.7084 8.5273 16.4224 7.27063 15.5479 6.81813C14.1567 6.09799 12.3246 5.89135 10.8216 6.28491ZM13.7403 8.63849C15.2139 9.09617 16.2819 10.323 16.5708 11.8905C16.8925 13.6348 15.9568 15.4434 14.3126 16.2555C13.6075 16.6037 13.5754 16.61 12.4999 16.61C11.4243 16.61 11.3922 16.6037 10.6871 16.2555C8.65363 15.2511 7.82132 12.9067 8.76593 10.8447C9.63005 8.95829 11.747 8.01944 13.7403 8.63849Z" fill="#725C3A"/>
</svg>
