<svg width="1265" height="81" viewBox="0 0 1265 81" fill="none" xmlns="http://www.w3.org/2000/svg">
<path fill-rule="evenodd" clip-rule="evenodd" d="M631.886 0.422792C631.775 0.771683 631.589 1.54939 631.473 2.1516C631.115 3.99797 629.798 5.45147 627.929 6.06256L626.17 6.6377L627.513 7.13461C629.311 7.79982 630.925 9.76419 631.65 12.1688L632.245 14.1412L632.681 12.2018C633.163 10.0509 635.575 7.18916 636.904 7.18916C637.318 7.18916 637.657 6.99886 637.657 6.76626C637.657 6.53367 637.295 6.34336 636.853 6.34336C636.41 6.34336 635.489 5.95514 634.804 5.48065C633.678 4.70083 633.079 3.51206 632.256 0.422792C632.106 -0.140931 632.065 -0.140931 631.886 0.422792ZM619.833 13.4692C619.469 14.3564 618.749 15.3359 618.233 15.6459L617.293 16.2096L618.402 16.9653C619.011 17.381 619.797 18.2133 620.149 18.8142L620.788 19.9074L621.217 18.9411C621.454 18.4095 622.151 17.6089 622.768 17.1624L623.889 16.35L622.569 14.8301C621.842 13.9944 621.079 12.9833 620.871 12.5836C620.547 11.9582 620.402 12.0825 619.833 13.4692ZM643.157 13.4683C642.809 14.222 642.023 15.1802 641.411 15.5981L640.297 16.3572L641.241 16.8393C641.76 17.1044 642.507 17.9147 642.901 18.64L643.616 19.959L644.126 18.7546C644.407 18.0923 645.182 17.2444 645.848 16.871L647.06 16.1918L646.148 15.7258C645.646 15.4695 644.91 14.5484 644.512 13.679L643.789 12.0977L643.157 13.4683ZM629.365 24.4223C623.666 31.4428 621.06 37.6619 620.762 44.951C620.514 51.0378 621.334 53.7836 625.398 60.4743C628.625 65.7872 629.852 68.7542 631.254 74.63C632.031 77.888 631.979 78.5464 631.097 76.6345C629.598 73.3841 627.398 71.5931 622.946 69.9971C621.805 69.5886 620.362 69.0029 619.739 68.6967C619.117 68.3901 617.566 67.6585 616.293 67.0703C612.989 65.5449 609.79 63.3568 607.523 61.0719C605.539 59.072 601.95 53.8458 602.295 53.4593C602.398 53.3438 603.356 54.4954 604.424 56.0187C605.491 57.5415 607.167 59.4501 608.148 60.2599C610.876 62.5114 615.97 65.3448 621.514 67.6953C626.794 69.9341 627.735 70.4708 629.516 72.2643L630.617 73.3727L629.73 71.6811C628.206 68.7716 626.864 66.6918 624.879 64.1599C623.824 62.8142 621.785 59.8645 620.347 57.6049C617.225 52.6972 614.727 49.9277 610.74 46.9521C605.425 42.9854 600.72 41.0553 594.749 40.393C591.547 40.0373 591.599 39.9299 592.905 44.2244C595.938 54.2044 599.735 59.804 606.749 64.6437C610.148 66.9886 610.195 66.8838 605.495 67.4847C604.299 67.6374 603.241 67.9076 603.143 68.0852C602.907 68.5128 613.713 72.869 617.19 73.7478C618.692 74.1276 621.648 74.6372 623.757 74.8795C625.867 75.1222 628.156 75.5849 628.845 75.9071C630.131 76.5098 631.618 78.7202 631.62 80.0333C631.623 81.412 632.196 80.7831 632.867 78.6657C633.235 77.5044 633.892 76.344 634.33 76.0809C634.768 75.8183 636.977 75.4364 639.238 75.2326C644.658 74.7442 647.086 74.0925 655.198 70.9486L661.987 68.3174L660.101 67.8196C659.064 67.546 657.706 67.3007 657.084 67.2749C655.983 67.2288 654.662 66.5966 655.02 66.287C655.118 66.202 656.419 65.333 657.912 64.3557C661.497 62.0086 664.986 58.0854 667.398 53.6919C669.409 50.0279 671.335 44.9958 671.804 42.184L672.068 40.5981H669.931C665.089 40.5981 658.895 43.0771 652.934 47.4004C649.006 50.2503 645.517 54.1118 642.27 59.2056C641.009 61.1827 639.13 63.9163 638.093 65.2797C637.056 66.6435 635.661 68.9272 634.992 70.3545L633.776 72.9498L634.868 71.835C636.351 70.3211 637.709 69.5988 643.115 67.4483C648.884 65.1545 652.057 63.5217 654.308 61.6884C656.416 59.9732 660.221 55.9967 661.146 54.5444C661.718 53.6462 661.71 53.738 661.091 55.1881C660.31 57.0192 657.193 60.5318 653.863 63.3348C651.348 65.451 647.264 67.5959 641.459 69.85C635.315 72.2355 634.434 72.8669 633.003 75.9101C632.046 77.9446 632.267 76.1473 633.49 71.9518C634.822 67.3836 635.594 65.6134 638.271 60.9869C642.553 53.5874 643.511 50.3793 643.218 44.4181C642.95 38.9754 641.543 34.9283 638.129 29.7833C635.292 25.5091 632.321 21.5681 631.935 21.5677C631.796 21.5677 630.639 22.8525 629.365 24.4223ZM605.96 30.9488C605.13 36.4655 606.009 42.3933 607.789 43.2835C610.661 44.7205 613.307 46.8549 615.991 49.9019C617.63 51.7626 619.085 53.285 619.225 53.285C619.365 53.285 619.397 51.4298 619.295 49.1618C619.156 46.0505 619.297 44.0054 619.868 40.8298C620.618 36.6592 620.619 36.6106 619.892 35.4671C618.261 32.8984 613.977 29.9939 609.737 28.5827C606.488 27.5009 606.477 27.5077 605.96 30.9488ZM652.857 29.3587C649.824 30.46 647.336 31.9735 645.361 33.9176C643.303 35.9428 643.255 36.2165 644.113 41.0747C644.871 45.368 644.903 48.7182 644.221 52.3906C643.876 54.2459 644.167 54.0589 648.323 49.7496C650.086 47.9214 652.863 45.524 654.494 44.4219C657.399 42.4597 657.469 42.3713 657.947 40.1338C658.424 37.9 658.354 32.6747 657.808 29.7085C657.494 28.0042 656.735 27.9505 652.857 29.3587Z" fill="#664B2F"/>
<path d="M688.068 56.1747C788.568 -16.3255 1264.07 52.6045 1264.07 52.6045" stroke="#725C3A"/>
<path d="M576.068 56.1747C475.568 -16.3255 0.067627 52.6045 0.067627 52.6045" stroke="#725C3A"/>
</svg>
