<svg width="1061" height="171" viewBox="0 0 1061 171" fill="none" xmlns="http://www.w3.org/2000/svg">
<path fill-rule="evenodd" clip-rule="evenodd" d="M529.702 0.895148C529.467 1.63383 529.072 3.28042 528.824 4.55543C528.064 8.46462 525.266 11.542 521.294 12.8358L517.556 14.0535L520.411 15.1056C524.231 16.514 527.661 20.673 529.202 25.7641L530.465 29.9401L531.391 25.8339C532.417 21.2801 537.54 15.2211 540.365 15.2211C541.245 15.2211 541.966 14.8182 541.966 14.3257C541.966 13.8333 541.197 13.4304 540.257 13.4304C539.317 13.4304 537.358 12.6084 535.903 11.6038C533.511 9.95273 532.238 7.43584 530.488 0.895148C530.169 -0.298383 530.082 -0.298383 529.702 0.895148ZM504.09 28.5174C503.317 30.3958 501.787 32.4695 500.689 33.1258L498.692 34.3194L501.048 35.9194C502.343 36.7995 504.014 38.5616 504.761 39.834L506.119 42.1485L507.032 40.1026C507.533 38.9771 509.016 37.2822 510.327 36.3366L512.708 34.6166L509.903 31.3987C508.36 29.6294 506.737 27.4886 506.296 26.6425C505.606 25.3182 505.298 25.5814 504.09 28.5174ZM553.652 28.5156C552.913 30.1111 551.244 32.14 549.942 33.0247L547.576 34.6319L549.583 35.6526C550.686 36.214 552.273 37.9295 553.109 39.4651L554.629 42.2577L555.713 39.7077C556.309 38.3056 557.956 36.5103 559.372 35.7197L561.948 34.2818L560.009 33.2951C558.943 32.7525 557.379 30.8023 556.533 28.9615L554.996 25.6137L553.652 28.5156ZM524.345 51.7075C512.235 66.5715 506.697 79.7389 506.065 95.1715C505.537 108.059 507.279 113.872 515.915 128.038C522.772 139.286 525.38 145.568 528.358 158.009C530.01 164.907 529.901 166.301 528.027 162.253C524.84 155.371 520.166 151.579 510.704 148.2C508.28 147.335 505.214 146.095 503.891 145.447C502.568 144.797 499.272 143.248 496.567 142.003C489.545 138.773 482.749 134.141 477.931 129.303C473.716 125.069 466.089 114.004 466.822 113.185C467.041 112.941 469.076 115.379 471.345 118.604C473.613 121.829 477.175 125.869 479.259 127.584C485.056 132.351 495.88 138.35 507.662 143.326C518.882 148.066 520.88 149.203 524.666 153L527.005 155.347L525.122 151.765C521.882 145.605 519.031 141.202 514.813 135.841C512.571 132.992 508.237 126.747 505.182 121.963C498.547 111.572 493.24 105.708 484.768 99.4084C473.473 91.0098 463.475 86.9233 450.787 85.5212C443.983 84.7682 444.093 84.5408 446.867 93.6333C453.313 114.763 461.381 126.619 476.287 136.865C483.509 141.83 483.609 141.608 473.621 142.88C471.08 143.204 468.831 143.776 468.623 144.152C468.122 145.057 491.085 154.28 498.473 156.141C501.666 156.945 507.946 158.024 512.429 158.537C516.912 159.051 521.777 160.03 523.24 160.713C525.973 161.989 529.133 166.669 529.138 169.449C529.143 172.368 530.361 171.036 531.787 166.553C532.568 164.095 533.965 161.638 534.896 161.081C535.827 160.525 540.52 159.716 545.326 159.285C556.842 158.25 562.003 156.871 579.239 150.214L593.668 144.643L589.66 143.59C587.456 143.01 584.57 142.491 583.247 142.436C580.908 142.339 578.102 141 578.862 140.345C579.069 140.165 581.835 138.325 585.007 136.256C592.625 131.286 600.04 122.98 605.166 113.678C609.44 105.92 613.532 95.2664 614.527 89.3131L615.088 85.9555H610.548C600.259 85.9555 587.096 91.2041 574.43 100.357C566.081 106.391 558.668 114.567 551.768 125.352C549.09 129.538 545.095 135.325 542.893 138.212C540.689 141.1 537.723 145.935 536.303 148.956L533.719 154.451L536.039 152.091C539.19 148.886 542.076 147.356 553.565 142.803C565.823 137.947 572.565 134.49 577.35 130.609C581.828 126.977 589.915 118.558 591.879 115.483C593.095 113.581 593.079 113.776 591.764 116.846C590.103 120.723 583.48 128.16 576.403 134.094C571.059 138.575 562.381 143.116 550.046 147.888C536.989 152.939 535.116 154.276 532.076 160.719C530.043 165.027 530.513 161.221 533.112 152.338C535.941 142.666 537.581 138.918 543.271 129.123C552.37 113.457 554.405 106.664 553.783 94.0433C553.214 82.5199 550.223 73.9512 542.968 63.0581C536.941 54.0086 530.627 45.6646 529.806 45.6637C529.51 45.6637 527.053 48.3839 524.345 51.7075ZM474.609 65.5258C472.845 77.2059 474.713 89.7563 478.495 91.6411C484.6 94.6835 490.222 99.2025 495.925 105.654C499.408 109.593 502.501 112.817 502.798 112.817C503.096 112.817 503.162 108.889 502.947 104.087C502.651 97.4995 502.95 93.1695 504.164 86.4461C505.759 77.616 505.76 77.513 504.216 75.0919C500.75 69.6534 491.645 63.504 482.636 60.5161C475.732 58.2258 475.709 58.2401 474.609 65.5258ZM574.266 62.1592C567.821 64.4907 562.533 67.6952 558.336 71.8113C553.963 76.0992 553.862 76.6785 555.684 86.9645C557.295 96.0543 557.363 103.147 555.914 110.923C555.182 114.851 555.799 114.455 564.631 105.331C568.377 101.461 574.278 96.3847 577.744 94.0514C583.917 89.8969 584.067 89.7097 585.083 84.9723C586.096 80.243 585.948 69.1798 584.787 62.8996C584.12 59.2913 582.507 59.1776 574.266 62.1592Z" fill="#664B2F"/>
<path d="M445.088 140C367.445 67.8816 0.0883331 136.449 0.0883331 136.449" stroke="#725C3A"/>
<path d="M615.088 140C692.732 67.8816 1060.09 136.449 1060.09 136.449" stroke="#725C3A"/>
</svg>
