<svg width="13" height="17" viewBox="0 0 13 17" fill="none" xmlns="http://www.w3.org/2000/svg">
<path d="M6.36057 7.82575C6.76163 7.82575 7.10322 7.68469 7.38533 7.40257C7.66745 7.12045 7.80851 6.77887 7.80851 6.37781C7.80851 5.97676 7.66745 5.63517 7.38533 5.35305C7.10322 5.07093 6.76163 4.92987 6.36057 4.92987C5.95952 4.92987 5.61793 5.07093 5.33581 5.35305C5.0537 5.63517 4.91264 5.97676 4.91264 6.37781C4.91264 6.77887 5.0537 7.12045 5.33581 7.40257C5.61793 7.68469 5.95952 7.82575 6.36057 7.82575ZM6.36057 14.9482C8.04523 13.4819 9.3771 11.9906 10.3562 10.4743C11.3353 8.95795 11.8248 7.64648 11.8248 6.53984C11.8248 4.9 11.3057 3.54658 10.2674 2.47959C9.22915 1.4126 7.92687 0.879109 6.36057 0.879109C4.79428 0.879109 3.492 1.4126 2.45374 2.47959C1.41548 3.54658 0.896346 4.9 0.896346 6.53984C0.896346 7.64648 1.38589 8.95795 2.36496 10.4743C3.34404 11.9906 4.67591 13.4819 6.36057 14.9482ZM6.36057 16.1514C4.25417 14.2886 2.66748 12.5514 1.60049 10.9397C0.533495 9.32798 0 7.86137 0 6.53984C0 4.64374 0.617384 3.07973 1.85215 1.84784C3.08692 0.615947 4.58973 0 6.36057 0C8.13142 0 9.63423 0.615947 10.869 1.84784C12.1038 3.07973 12.7211 4.64374 12.7211 6.53984C12.7211 7.86137 12.1877 9.32798 11.1207 10.9397C10.0537 12.5514 8.46698 14.2886 6.36057 16.1514Z" fill="#FDF4E3"/>
</svg>
