<svg width="15" height="15" viewBox="0 0 15 15" fill="none" xmlns="http://www.w3.org/2000/svg">
<path d="M13.6865 14.6667C12.1411 14.6667 10.5569 14.2797 8.93397 13.5058C7.311 12.732 5.8032 11.6458 4.41057 10.2473C3.01795 8.84877 1.93469 7.34097 1.16082 5.72388C0.386939 4.10678 0 2.52553 0 0.980127C0 0.700091 0.0916665 0.466727 0.275 0.280036C0.458333 0.0933455 0.687499 0 0.962499 0H3.22949C3.47864 0 3.69605 0.0784453 3.88173 0.235336C4.06742 0.392227 4.19317 0.593482 4.25898 0.839101L4.71378 3.025C4.75609 3.2812 4.74845 3.50508 4.69087 3.69664C4.63328 3.88819 4.53163 4.04509 4.3859 4.16731L2.37452 6.04295C2.75059 6.72575 3.16632 7.36007 3.62172 7.94591C4.07711 8.53175 4.56277 9.08675 5.07869 9.61089C5.61106 10.1433 6.18397 10.6383 6.79743 11.0961C7.41089 11.5538 8.08429 11.986 8.81762 12.3926L10.7779 10.3971C10.9271 10.2361 11.0949 10.13 11.2812 10.0789C11.4674 10.0278 11.6734 10.0175 11.899 10.0481L13.8276 10.4429C14.0767 10.5041 14.2788 10.6295 14.434 10.8193C14.5891 11.0091 14.6667 11.2268 14.6667 11.4724V13.7042C14.6667 13.9792 14.5733 14.2083 14.3866 14.3917C14.1999 14.575 13.9666 14.6667 13.6865 14.6667ZM1.94439 5.18269L3.70368 3.56442C3.76244 3.51741 3.80064 3.45278 3.81827 3.37051C3.8359 3.28825 3.83296 3.21186 3.80945 3.14135L3.40224 1.19872C3.37874 1.1047 3.33761 1.03419 3.27885 0.987183C3.22009 0.940175 3.1437 0.916671 3.04968 0.916671H1.16875C1.09824 0.916671 1.03948 0.940175 0.992472 0.987183C0.945464 1.03419 0.92196 1.09295 0.92196 1.16346C0.939588 1.78985 1.03772 2.44386 1.21635 3.12548C1.39498 3.8071 1.63766 4.49284 1.94439 5.18269ZM9.69022 12.8227C10.3096 13.1295 10.9697 13.3563 11.6707 13.5032C12.3718 13.6501 12.9826 13.7288 13.5032 13.7394C13.5737 13.7394 13.6325 13.7159 13.6795 13.6689C13.7265 13.6219 13.75 13.5631 13.75 13.4926V11.6522C13.75 11.5582 13.7265 11.4818 13.6795 11.4231C13.6325 11.3643 13.562 11.3232 13.4679 11.2997L11.7721 10.9524C11.7016 10.9289 11.6399 10.926 11.587 10.9436C11.5341 10.9612 11.4783 10.9994 11.4195 11.0582L9.69022 12.8227Z" fill="#FDF4E3"/>
</svg>
